<?xml version="1.0" encoding="UTF-8" standalone="no"?>
<!-- Created with Inkscape (http://www.inkscape.org/) -->

<svg
   width="131.054mm"
   height="28.133465mm"
   viewBox="0 0 131.054 28.133465"
   version="1.1"
   id="svg1"
   xmlns:inkscape="http://www.inkscape.org/namespaces/inkscape"
   xmlns:sodipodi="http://sodipodi.sourceforge.net/DTD/sodipodi-0.dtd"
   xmlns="http://www.w3.org/2000/svg"
   xmlns:svg="http://www.w3.org/2000/svg">
  <sodipodi:namedview
     id="namedview1"
     pagecolor="#505050"
     bordercolor="#eeeeee"
     borderopacity="1"
     inkscape:showpageshadow="0"
     inkscape:pageopacity="0"
     inkscape:pagecheckerboard="0"
     inkscape:deskcolor="#505050"
     inkscape:document-units="mm"
     inkscape:export-bgcolor="#ffffff00" />
  <defs
     id="defs1" />
  <g
     inkscape:label="Warstwa 1"
     inkscape:groupmode="layer"
     id="layer1"
     transform="translate(-8.0632183,-3.0282842)">
    <path
       style="font-size:35.0946px;font-family:'Cascadia Mono PL';-inkscape-font-specification:'Cascadia Mono PL';white-space:pre;inline-size:146.911;stroke:#000000;stroke-width:1.19403;stroke-linecap:round;stroke-linejoin:round"
       d="m 123.56084,7.5001503 v -3.505817 h 14.95936 v 3.505817 z"
       id="path20" />
    <path
       style="font-size:35.0946px;font-family:'Cascadia Mono PL';-inkscape-font-specification:'Cascadia Mono PL';white-space:pre;inline-size:146.911;stroke:#000000;stroke-width:1.19403;stroke-linecap:round;stroke-linejoin:round"
       d="m 123.56084,18.829472 v -3.505816 h 12.0948 v 3.505816 z"
       id="path19" />
    <path
       style="font-size:35.0946px;font-family:'Cascadia Mono PL';-inkscape-font-specification:'Cascadia Mono PL';white-space:pre;inline-size:146.911;stroke:#000000;stroke-width:1.19403;stroke-linecap:round;stroke-linejoin:round"
       d="m 123.56084,30.195699 v -3.505817 h 14.95936 v 3.505817 z"
       id="path18" />
    <path
       style="font-size:35.0946px;font-family:'Cascadia Mono PL';-inkscape-font-specification:'Cascadia Mono PL';white-space:pre;inline-size:146.911;stroke:#000000;stroke-width:1.19403;stroke-linecap:round;stroke-linejoin:round"
       d="M 123.56084,30.195699 V 3.9943333 H 126.871 V 30.195699 Z"
       id="path17" />
    <path
       style="font-size:35.0946px;font-family:'Cascadia Mono PL';-inkscape-font-specification:'Cascadia Mono PL';white-space:pre;inline-size:146.911;stroke:#000000;stroke-width:1.19403;stroke-linecap:round;stroke-linejoin:round"
       d="m 110.68624,30.564733 c -1.28375,0 -2.48792,-0.123011 -3.61253,-0.369034 -1.114,-0.233722 -2.14842,-0.590453 -3.10327,-1.070196 l 0.41377,-3.727237 c 1.16704,0.578152 2.29164,1.020992 3.37381,1.328519 1.09278,0.295228 2.15372,0.442841 3.18284,0.442841 1.48533,0 2.58872,-0.301377 3.31016,-0.904131 0.72144,-0.602755 1.08217,-1.519188 1.08217,-2.749299 0,-1.562241 -0.68962,-2.706245 -2.06885,-3.43201 l -3.9149,-2.066586 c -1.53838,-0.811874 -2.72133,-1.789813 -3.54887,-2.933816 -0.81693,-1.144003 -1.22539,-2.564782 -1.22539,-4.262335 0,-2.2880067 0.59413,-4.0593657 1.78239,-5.3140787 1.18826,-1.254714 2.86986,-1.882071 5.04481,-1.882071 1.51715,0 2.85925,0.258324 4.02629,0.774971 1.16705,0.516647 2.29165,1.359272 3.37381,2.527877 l -2.22798,2.620137 c -0.93363,-0.885679 -1.80892,-1.525337 -2.62585,-1.918973 -0.80633,-0.405937 -1.64978,-0.608905 -2.53036,-0.608905 -1.09277,0 -1.94153,0.307528 -2.54627,0.922583 -0.59414,0.602754 -0.8912,1.500736 -0.8912,2.6939437 0,0.848776 0.19627,1.54379 0.58882,2.085038 0.39256,0.528948 0.97077,1.00254 1.73466,1.420778 l 3.31016,1.808264 c 1.67629,0.910281 2.94942,1.937424 3.8194,3.081428 0.86998,1.144003 1.30497,2.613986 1.30497,4.409948 0,2.374115 -0.6684,4.157776 -2.00519,5.350983 -1.32619,1.180908 -3.34199,1.771361 -6.0474,1.771361 z"
       id="path16" />
    <path
       style="font-size:35.0946px;font-family:'Cascadia Mono PL';-inkscape-font-specification:'Cascadia Mono PL';white-space:pre;inline-size:146.911;stroke:#000000;stroke-width:1.19403;stroke-linecap:round;stroke-linejoin:round"
       d="M 97.17507,30.195699 92.11435,17.869985 h 3.50113 l 5.379,12.325714 z"
       id="path15" />
    <path
       style="font-size:35.0946px;font-family:'Cascadia Mono PL';-inkscape-font-specification:'Cascadia Mono PL';white-space:pre;inline-size:146.911;stroke:#000000;stroke-width:1.19403;stroke-linecap:round;stroke-linejoin:round"
       d="M 85.04844,30.195699 V 3.9943333 H 88.3586 V 30.195699 Z"
       id="path14" />
    <path
       style="font-size:35.0946px;font-family:'Cascadia Mono PL';-inkscape-font-specification:'Cascadia Mono PL';white-space:pre;inline-size:146.911;stroke:#000000;stroke-width:1.19403;stroke-linecap:round;stroke-linejoin:round"
       d="m 88.13581,20.231799 v -3.505817 h 4.67877 c 1.26253,0 2.2439,-0.387485 2.94413,-1.162454 0.71084,-0.77497 1.06625,-1.863618 1.06625,-3.265945 0,-1.537639 -0.35541,-2.7185457 -1.06625,-3.5427197 -0.70023,-0.836475 -1.6816,-1.254713 -2.94413,-1.254713 h -4.61512 l -0.38195,-3.505817 h 4.99707 c 2.34469,0 4.1536,0.688862 5.42675,2.066587 1.28375,1.377724 1.92562,3.3336 1.92562,5.8676287 0,2.632438 -0.64187,4.674423 -1.92562,6.125954 -1.27315,1.451531 -3.08206,2.177296 -5.42675,2.177296 z"
       id="path13" />
    <path
       style="font-size:35.0946px;font-family:'Cascadia Mono PL';-inkscape-font-specification:'Cascadia Mono PL';white-space:pre;inline-size:146.911;stroke:#000000;stroke-width:1.19403;stroke-linecap:round;stroke-linejoin:round"
       d="M 66.269677,7.5001503 V 3.9943333 H 81.22904 v 3.505817 z"
       id="path12" />
    <path
       style="font-size:35.0946px;font-family:'Cascadia Mono PL';-inkscape-font-specification:'Cascadia Mono PL';white-space:pre;inline-size:146.911;stroke:#000000;stroke-width:1.19403;stroke-linecap:round;stroke-linejoin:round"
       d="M 66.269677,18.829472 V 15.323656 H 78.36448 v 3.505816 z"
       id="path11" />
    <path
       style="font-size:35.0946px;font-family:'Cascadia Mono PL';-inkscape-font-specification:'Cascadia Mono PL';white-space:pre;inline-size:146.911;stroke:#000000;stroke-width:1.19403;stroke-linecap:round;stroke-linejoin:round"
       d="M 66.269677,30.195699 V 26.689882 H 81.22904 v 3.505817 z"
       id="path10" />
    <path
       style="font-size:35.0946px;font-family:'Cascadia Mono PL';-inkscape-font-specification:'Cascadia Mono PL';white-space:pre;inline-size:146.911;stroke:#000000;stroke-width:1.19403;stroke-linecap:round;stroke-linejoin:round"
       d="M 66.269677,30.195699 V 3.9943333 h 3.310157 v 22.0080417 4.193324 z"
       id="path9" />
    <path
       style="font-size:35.0946px;font-family:'Cascadia Mono PL';-inkscape-font-specification:'Cascadia Mono PL';white-space:pre;inline-size:146.911;stroke:#000000;stroke-width:1.19403;stroke-linecap:round;stroke-linejoin:round"
       d="M 51.708173,30.195699 45.342488,3.9943333 h 3.405642 l 5.283518,23.0645827 h 0.286455 L 59.601622,3.9943333 h 3.405641 L 56.641579,30.195699 Z"
       id="path8" />
    <path
       style="font-size:35.0946px;font-family:'Cascadia Mono PL';-inkscape-font-specification:'Cascadia Mono PL';white-space:pre;inline-size:146.911;stroke:#000000;stroke-width:1.19403;stroke-linecap:round;stroke-linejoin:round"
       d="M 43.034929,7.5001503 V 3.9943333 H 28.07557 v 3.505817 z"
       id="path7" />
    <path
       style="font-size:35.0946px;font-family:'Cascadia Mono PL';-inkscape-font-specification:'Cascadia Mono PL';white-space:pre;inline-size:146.911;stroke:#000000;stroke-width:1.19403;stroke-linecap:round;stroke-linejoin:round"
       d="m 43.034929,18.829472 v -3.505816 h -12.0948 v 3.505816 z"
       id="path6" />
    <path
       style="font-size:35.0946px;font-family:'Cascadia Mono PL';-inkscape-font-specification:'Cascadia Mono PL';white-space:pre;inline-size:146.911;stroke:#000000;stroke-width:1.19403;stroke-linecap:round;stroke-linejoin:round"
       d="M 43.034929,30.195699 V 26.689882 H 28.07557 v 3.505817 z"
       id="path5" />
    <path
       style="font-size:35.0946px;font-family:'Cascadia Mono PL';-inkscape-font-specification:'Cascadia Mono PL';white-space:pre;inline-size:146.911;stroke:#000000;stroke-width:1.19403;stroke-linecap:round;stroke-linejoin:round"
       d="M 43.034929,30.195699 V 10.872163 3.9943333 H 39.724773 V 30.195699 Z"
       id="path4" />
    <path
       style="font-size:35.0946px;font-family:'Cascadia Mono PL';-inkscape-font-specification:'Cascadia Mono PL';white-space:pre;inline-size:146.911;stroke:#000000;stroke-width:1.19403;stroke-linecap:round;stroke-linejoin:round"
       d="M 20.786862,30.195699 15.726143,17.869985 h 3.501125 l 5.379004,12.325714 z"
       id="path3" />
    <path
       style="font-size:35.0946px;font-family:'Cascadia Mono PL';-inkscape-font-specification:'Cascadia Mono PL';white-space:pre;inline-size:146.911;stroke:#000000;stroke-width:1.19403;stroke-linecap:round;stroke-linejoin:round"
       d="M 8.660233,30.195699 V 3.9943333 h 3.310155 V 30.195699 Z"
       id="path2" />
    <path
       style="font-size:35.0946px;font-family:'Cascadia Mono PL';-inkscape-font-specification:'Cascadia Mono PL';white-space:pre;inline-size:146.911;stroke:#000000;stroke-width:1.19403;stroke-linecap:round;stroke-linejoin:round"
       d="m 11.74759,20.231799 v -3.505817 h 4.678778 c 1.262527,0 2.243903,-0.387485 2.944129,-1.162454 0.710834,-0.77497 1.066252,-1.863618 1.066252,-3.265945 0,-1.537639 -0.355418,-2.7185457 -1.066252,-3.5427197 -0.700226,-0.836475 -1.681602,-1.254713 -2.944129,-1.254713 h -4.615122 l -0.381941,-3.505817 h 4.997063 c 2.344693,0 4.153608,0.688862 5.426745,2.066587 1.283747,1.377724 1.925621,3.3336 1.925621,5.8676287 0,2.632438 -0.641874,4.674423 -1.925621,6.125954 -1.273137,1.451531 -3.082052,2.177296 -5.426745,2.177296 z"
       id="text1" />
  </g>
</svg>
